<svg id="wave" style="transform:rotate(0deg); transition: 0.3s" viewBox="0 0 1440 490" version="1.1" xmlns="http://www.w3.org/2000/svg"><defs><linearGradient id="sw-gradient-0" x1="0" x2="0" y1="1" y2="0"><stop stop-color="rgba(62, 243, 117.292, 1)" offset="0%"></stop><stop stop-color="rgba(255, 255, 255, 1)" offset="100%"></stop></linearGradient></defs><path style="transform:translate(0, 0px); opacity:1" fill="url(#sw-gradient-0)" d="M0,441L240,432.8C480,425,960,408,1440,367.5C1920,327,2400,261,2880,228.7C3360,196,3840,196,4320,179.7C4800,163,5280,131,5760,138.8C6240,147,6720,196,7200,253.2C7680,310,8160,376,8640,351.2C9120,327,9600,212,10080,212.3C10560,212,11040,327,11520,318.5C12000,310,12480,180,12960,106.2C13440,33,13920,16,14400,49C14880,82,15360,163,15840,220.5C16320,278,16800,310,17280,269.5C17760,229,18240,114,18720,89.8C19200,65,19680,131,20160,187.8C20640,245,21120,294,21600,285.8C22080,278,22560,212,23040,220.5C23520,229,24000,310,24480,285.8C24960,261,25440,131,25920,65.3C26400,0,26880,0,27360,32.7C27840,65,28320,131,28800,163.3C29280,196,29760,196,30240,204.2C30720,212,31200,229,31680,236.8C32160,245,32640,245,33120,212.3C33600,180,34080,114,34320,81.7L34560,49L34560,490L34320,490C34080,490,33600,490,33120,490C32640,490,32160,490,31680,490C31200,490,30720,490,30240,490C29760,490,29280,490,28800,490C28320,490,27840,490,27360,490C26880,490,26400,490,25920,490C25440,490,24960,490,24480,490C24000,490,23520,490,23040,490C22560,490,22080,490,21600,490C21120,490,20640,490,20160,490C19680,490,19200,490,18720,490C18240,490,17760,490,17280,490C16800,490,16320,490,15840,490C15360,490,14880,490,14400,490C13920,490,13440,490,12960,490C12480,490,12000,490,11520,490C11040,490,10560,490,10080,490C9600,490,9120,490,8640,490C8160,490,7680,490,7200,490C6720,490,6240,490,5760,490C5280,490,4800,490,4320,490C3840,490,3360,490,2880,490C2400,490,1920,490,1440,490C960,490,480,490,240,490L0,490Z"></path><defs><linearGradient id="sw-gradient-1" x1="0" x2="0" y1="1" y2="0"><stop stop-color="rgba(62, 233.802, 243, 1)" offset="0%"></stop><stop stop-color="rgba(255, 255, 255, 1)" offset="100%"></stop></linearGradient></defs><path style="transform:translate(0, 50px); opacity:0.9" fill="url(#sw-gradient-1)" d="M0,294L240,310.3C480,327,960,359,1440,334.8C1920,310,2400,229,2880,187.8C3360,147,3840,147,4320,147C4800,147,5280,147,5760,187.8C6240,229,6720,310,7200,302.2C7680,294,8160,196,8640,187.8C9120,180,9600,261,10080,294C10560,327,11040,310,11520,318.5C12000,327,12480,359,12960,343C13440,327,13920,261,14400,228.7C14880,196,15360,196,15840,204.2C16320,212,16800,229,17280,212.3C17760,196,18240,147,18720,114.3C19200,82,19680,65,20160,49C20640,33,21120,16,21600,24.5C22080,33,22560,65,23040,138.8C23520,212,24000,327,24480,351.2C24960,376,25440,310,25920,310.3C26400,310,26880,376,27360,408.3C27840,441,28320,441,28800,375.7C29280,310,29760,180,30240,171.5C30720,163,31200,278,31680,343C32160,408,32640,425,33120,392C33600,359,34080,278,34320,236.8L34560,196L34560,490L34320,490C34080,490,33600,490,33120,490C32640,490,32160,490,31680,490C31200,490,30720,490,30240,490C29760,490,29280,490,28800,490C28320,490,27840,490,27360,490C26880,490,26400,490,25920,490C25440,490,24960,490,24480,490C24000,490,23520,490,23040,490C22560,490,22080,490,21600,490C21120,490,20640,490,20160,490C19680,490,19200,490,18720,490C18240,490,17760,490,17280,490C16800,490,16320,490,15840,490C15360,490,14880,490,14400,490C13920,490,13440,490,12960,490C12480,490,12000,490,11520,490C11040,490,10560,490,10080,490C9600,490,9120,490,8640,490C8160,490,7680,490,7200,490C6720,490,6240,490,5760,490C5280,490,4800,490,4320,490C3840,490,3360,490,2880,490C2400,490,1920,490,1440,490C960,490,480,490,240,490L0,490Z"></path><defs><linearGradient id="sw-gradient-2" x1="0" x2="0" y1="1" y2="0"><stop stop-color="rgba(62, 68.234, 243, 1)" offset="0%"></stop><stop stop-color="rgba(255, 255, 255, 1)" offset="100%"></stop></linearGradient></defs><path style="transform:translate(0, 100px); opacity:0.8" fill="url(#sw-gradient-2)" d="M0,49L240,106.2C480,163,960,278,1440,318.5C1920,359,2400,327,2880,277.7C3360,229,3840,163,4320,122.5C4800,82,5280,65,5760,106.2C6240,147,6720,245,7200,310.3C7680,376,8160,408,8640,408.3C9120,408,9600,376,10080,359.3C10560,343,11040,343,11520,359.3C12000,376,12480,408,12960,408.3C13440,408,13920,376,14400,375.7C14880,376,15360,408,15840,408.3C16320,408,16800,376,17280,334.8C17760,294,18240,245,18720,204.2C19200,163,19680,131,20160,130.7C20640,131,21120,163,21600,171.5C22080,180,22560,163,23040,179.7C23520,196,24000,245,24480,253.2C24960,261,25440,229,25920,236.8C26400,245,26880,294,27360,302.2C27840,310,28320,278,28800,236.8C29280,196,29760,147,30240,147C30720,147,31200,196,31680,236.8C32160,278,32640,310,33120,310.3C33600,310,34080,278,34320,261.3L34560,245L34560,490L34320,490C34080,490,33600,490,33120,490C32640,490,32160,490,31680,490C31200,490,30720,490,30240,490C29760,490,29280,490,28800,490C28320,490,27840,490,27360,490C26880,490,26400,490,25920,490C25440,490,24960,490,24480,490C24000,490,23520,490,23040,490C22560,490,22080,490,21600,490C21120,490,20640,490,20160,490C19680,490,19200,490,18720,490C18240,490,17760,490,17280,490C16800,490,16320,490,15840,490C15360,490,14880,490,14400,490C13920,490,13440,490,12960,490C12480,490,12000,490,11520,490C11040,490,10560,490,10080,490C9600,490,9120,490,8640,490C8160,490,7680,490,7200,490C6720,490,6240,490,5760,490C5280,490,4800,490,4320,490C3840,490,3360,490,2880,490C2400,490,1920,490,1440,490C960,490,480,490,240,490L0,490Z"></path><defs><linearGradient id="sw-gradient-3" x1="0" x2="0" y1="1" y2="0"><stop stop-color="rgba(62, 243, 178.613, 1)" offset="0%"></stop><stop stop-color="rgba(255, 255, 255, 1)" offset="100%"></stop></linearGradient></defs><path style="transform:translate(0, 150px); opacity:0.7" fill="url(#sw-gradient-3)" d="M0,147L240,147C480,147,960,147,1440,171.5C1920,196,2400,245,2880,277.7C3360,310,3840,327,4320,310.3C4800,294,5280,245,5760,236.8C6240,229,6720,261,7200,277.7C7680,294,8160,294,8640,310.3C9120,327,9600,359,10080,351.2C10560,343,11040,294,11520,245C12000,196,12480,147,12960,171.5C13440,196,13920,294,14400,343C14880,392,15360,392,15840,367.5C16320,343,16800,294,17280,236.8C17760,180,18240,114,18720,98C19200,82,19680,114,20160,138.8C20640,163,21120,180,21600,163.3C22080,147,22560,98,23040,122.5C23520,147,24000,245,24480,236.8C24960,229,25440,114,25920,106.2C26400,98,26880,196,27360,220.5C27840,245,28320,196,28800,147C29280,98,29760,49,30240,89.8C30720,131,31200,261,31680,310.3C32160,359,32640,327,33120,277.7C33600,229,34080,163,34320,130.7L34560,98L34560,490L34320,490C34080,490,33600,490,33120,490C32640,490,32160,490,31680,490C31200,490,30720,490,30240,490C29760,490,29280,490,28800,490C28320,490,27840,490,27360,490C26880,490,26400,490,25920,490C25440,490,24960,490,24480,490C24000,490,23520,490,23040,490C22560,490,22080,490,21600,490C21120,490,20640,490,20160,490C19680,490,19200,490,18720,490C18240,490,17760,490,17280,490C16800,490,16320,490,15840,490C15360,490,14880,490,14400,490C13920,490,13440,490,12960,490C12480,490,12000,490,11520,490C11040,490,10560,490,10080,490C9600,490,9120,490,8640,490C8160,490,7680,490,7200,490C6720,490,6240,490,5760,490C5280,490,4800,490,4320,490C3840,490,3360,490,2880,490C2400,490,1920,490,1440,490C960,490,480,490,240,490L0,490Z"></path></svg>